<?xml version="1.0" encoding="UTF-8"?>
<svg version="1.1" xmlns="http://www.w3.org/2000/svg" width="134" height="38">
<path d="M0 0 C44.22 0 88.44 0 134 0 C134 12.54 134 25.08 134 38 C89.78 38 45.56 38 0 38 C0 25.46 0 12.92 0 0 Z " fill="#FCF3E6" transform="translate(0,0)"/>
<path d="M0 0 C4.10488479 2.82780952 7.56757505 6.44765011 9.8125 10.9375 C10.29931609 18.11803736 9.22976726 23.07494667 4.4375 28.75 C0.13744725 32.33337729 -3.40212959 33.42132028 -9.06640625 33.25 C-14.47694731 32.45286688 -18.21059394 30.13984592 -21.625 25.9375 C-23.87139058 21.62443009 -23.87139058 21.62443009 -24.1875 18.9375 C-24.4040625 17.1121875 -24.4040625 17.1121875 -24.625 15.25 C-24.55338769 9.78700384 -21.71029276 5.92190009 -18.1875 1.9375 C-12.63248144 -2.13618027 -6.36754586 -2.12251529 0 0 Z " fill="#F7630C" transform="translate(27.1875,3.0625)"/>
<path d="M0 0 C1.65 0.33 3.3 0.66 5 1 C5.99 3.97 6.98 6.94 8 10 C8.33 6.7 8.66 3.4 9 0 C10.32 0 11.64 0 13 0 C13.33 1.32 13.66 2.64 14 4 C14.4125 3.34 14.825 2.68 15.25 2 C16.11625 1.01 16.11625 1.01 17 0 C18.32 0 19.64 0 21 0 C20.690625 0.5775 20.38125 1.155 20.0625 1.75 C18.61123571 4.76092984 18.61123571 4.76092984 18 8 C19.35814007 11.21712945 19.35814007 11.21712945 21 14 C17 14 17 14 14.75 12 C14.1725 11.34 13.595 10.68 13 10 C13 11.32 13 12.64 13 14 C10.36 14 7.72 14 5 14 C5 13.34 5 12.68 5 12 C3.02 12 1.04 12 -1 12 C-1 12.66 -1 13.32 -1 14 C-2.32 14 -3.64 14 -5 14 C-4.54857225 12.22739369 -4.08859477 10.4569632 -3.625 8.6875 C-3.36976562 7.70136719 -3.11453125 6.71523438 -2.8515625 5.69921875 C-2 3 -2 3 0 0 Z " fill="#4B2823" transform="translate(51,11)"/>
<path d="M0 0 C2.375 0.1875 2.375 0.1875 5 1 C6.59660706 3.88909849 7 5.69058796 7 9 C7.7425 8.95875 8.485 8.9175 9.25 8.875 C12.08758952 9.00398134 13.58773938 9.57051222 16 11 C16 10.34 16 9.68 16 9 C15.21625 8.855625 14.4325 8.71125 13.625 8.5625 C11 8 11 8 9 7 C8.8125 4.625 8.8125 4.625 9 2 C12.23253796 -0.15502531 13.25150923 -0.46856135 17 0 C18.8125 1.375 18.8125 1.375 20 3 C20 3.66 20 4.32 20 5 C18.68 5 17.36 5 16 5 C16 4.34 16 3.68 16 3 C15.01 3.66 14.02 4.32 13 5 C14.98 5.66 16.96 6.32 19 7 C19.625 9.375 19.625 9.375 20 12 C18 14 18 14 14.5 14.125 C12.7675 14.063125 12.7675 14.063125 11 14 C10.34 14 9.68 14 9 14 C7.68 14 6.36 14 5 14 C5 13.34 5 12.68 5 12 C3.02 12 1.04 12 -1 12 C-1 12.66 -1 13.32 -1 14 C-1.99 14 -2.98 14 -4 14 C-3.46148032 8.72250715 -2.22656164 4.74354436 0 0 Z " fill="#3B1813" transform="translate(77,11)"/>
<path d="M0 0 C8.58 0 17.16 0 26 0 C26 0.33 26 0.66 26 1 C25.02417969 1.06058594 24.04835938 1.12117187 23.04296875 1.18359375 C21.13451172 1.30927734 21.13451172 1.30927734 19.1875 1.4375 C17.92292969 1.51871094 16.65835937 1.59992187 15.35546875 1.68359375 C12.00818107 1.87184547 12.00818107 1.87184547 9 3 C8.67 3.66 8.34 4.32 8 5 C7.34 5 6.68 5 6 5 C5.67 5.99 5.34 6.98 5 8 C4.34 7.67 3.68 7.34 3 7 C3.165 7.55171875 3.33 8.1034375 3.5 8.671875 C4.06006539 11.27967947 4.06091303 13.58505477 4 16.25 C3.57072747 24.90102905 3.57072747 24.90102905 7.0625 32.375 C7.701875 32.91125 8.34125 33.4475 9 34 C9 34.66 9 35.32 9 36 C9.66 36.66 10.32 37.32 11 38 C7.37 38 3.74 38 0 38 C0 25.46 0 12.92 0 0 Z " fill="#FDF5E9" transform="translate(0,0)"/>
<path d="M0 0 C0.66 0.33 1.32 0.66 2 1 C1.95875 1.886875 1.9175 2.77375 1.875 3.6875 C2.00010824 7.00286843 2.49291245 9.06955198 4 12 C4.66 12.33 5.32 12.66 6 13 C5 16 5 16 3.375 17.1875 C-0.67359981 18.5725473 -4.46761285 18.62867165 -8.4375 17 C-8.953125 16.67 -9.46875 16.34 -10 16 C-10 15.34 -10 14.68 -10 14 C-11.65 13.67 -13.3 13.34 -15 13 C-15.33 11.68 -15.66 10.36 -16 9 C-15.34 9 -14.68 9 -14 9 C-14 8.01 -14 7.02 -14 6 C-12.1875 5.375 -12.1875 5.375 -10 5 C-6.9890638 7.0072908 -6.36983503 7.83884224 -5 11 C-4.80664062 10.45730469 -4.61328125 9.91460937 -4.4140625 9.35546875 C-4.15367188 8.64003906 -3.89328125 7.92460937 -3.625 7.1875 C-3.36976562 6.47980469 -3.11453125 5.77210937 -2.8515625 5.04296875 C-2 3 -2 3 0 0 Z " fill="#FB5F04" transform="translate(23,17)"/>
<path d="M0 0 C0.33 0 0.66 0 1 0 C1 4.29 1 8.58 1 13 C-0.98 13.99 -0.98 13.99 -3 15 C-4.29920746 18.54588501 -4.29920746 18.54588501 -5 22 C-8.43742918 22.05802698 -11.87473253 22.09360486 -15.3125 22.125 C-16.28896484 22.14175781 -17.26542969 22.15851562 -18.27148438 22.17578125 C-19.67817383 22.18544922 -19.67817383 22.18544922 -21.11328125 22.1953125 C-21.97735596 22.20578613 -22.84143066 22.21625977 -23.73168945 22.22705078 C-26 22 -26 22 -29 20 C-29.69937532 18.68352881 -30.36729133 17.34977849 -31 16 C-31.66 15.34 -32.32 14.68 -33 14 C-32.625 11.875 -32.625 11.875 -32 10 C-31.67 10.7425 -31.34 11.485 -31 12.25 C-27.94801725 16.44647629 -24.03100465 18.49011137 -18.91015625 19.3515625 C-14.19819113 19.55053224 -11.02590958 18.30051976 -7 16 C-6.34 16 -5.68 16 -5 16 C-3.15209462 12.68983906 -2.25458513 9.42826509 -1.375 5.75 C-1.11460938 4.67234375 -0.85421875 3.5946875 -0.5859375 2.484375 C-0.39257812 1.66453125 -0.19921875 0.8446875 0 0 Z " fill="#FDE3CC" transform="translate(37,16)"/>
<path d="M0 0 C0.99 0 1.98 0 3 0 C3 0.99 3 1.98 3 3 C3.66 3 4.32 3 5 3 C6.6875 4.75 6.6875 4.75 8 7 C7.9375 9.125 7.9375 9.125 7 11 C4.9375 12.25 4.9375 12.25 3 13 C3 11.35 3 9.7 3 8 C-0.80984844 10.77079887 -1.06840752 14.62868145 -2 19 C-2.99 18.34 -3.98 17.68 -5 17 C-5 16.01 -5 15.02 -5 14 C-5.61875 13.7525 -6.2375 13.505 -6.875 13.25 C-9.35068687 11.79371361 -9.95125002 10.62187494 -11 8 C-10.01 7.01 -9.02 6.02 -8 5 C-7.34 5.33 -6.68 5.66 -6 6 C-6.99 7.485 -6.99 7.485 -8 9 C-6.35 9.99 -4.7 10.98 -3 12 C-2.86722656 11.30132812 -2.73445313 10.60265625 -2.59765625 9.8828125 C-2.42105469 8.97273438 -2.24445312 8.06265625 -2.0625 7.125 C-1.80146484 5.76761719 -1.80146484 5.76761719 -1.53515625 4.3828125 C-1 2 -1 2 0 0 Z " fill="#EC752C" transform="translate(21,10)"/>
<path d="M0 0 C1.32 0 2.64 0 4 0 C4.33 1.32 4.66 2.64 5 4 C5.4125 3.34 5.825 2.68 6.25 2 C6.8275 1.34 7.405 0.68 8 0 C9.32 0 10.64 0 12 0 C11.690625 0.5775 11.38125 1.155 11.0625 1.75 C9.62702436 4.76367213 9.62702436 4.76367213 9 8 C10.3916876 10.13344768 10.3916876 10.13344768 12 12 C12 12.66 12 13.32 12 14 C8 14 8 14 5.75 12 C5.1725 11.34 4.595 10.68 4 10 C4 11.32 4 12.64 4 14 C2.68 14 1.36 14 0 14 C0 9.38 0 4.76 0 0 Z " fill="#F06F20" transform="translate(114,11)"/>
<path d="M0 0 C1.32 0 2.64 0 4 0 C4 1.98 4 3.96 4 6 C5.32 6 6.64 6 8 6 C8 4.35 8 2.7 8 1 C8.99 1 9.98 1 11 1 C11 5.29 11 9.58 11 14 C10.01 14 9.02 14 8 14 C8 12.35 8 10.7 8 9 C6.68 9 5.36 9 4 9 C4 10.65 4 12.3 4 14 C2.68 14 1.36 14 0 14 C0 9.38 0 4.76 0 0 Z " fill="#47211D" transform="translate(98,11)"/>
<path d="M0 0 C0.33 0 0.66 0 1 0 C1.09796875 1.10859375 1.1959375 2.2171875 1.296875 3.359375 C1.4469916 4.82301184 1.59808465 6.28654876 1.75 7.75 C1.811875 8.47960938 1.87375 9.20921875 1.9375 9.9609375 C2.45560825 14.71026313 3.34814312 16.94194099 7 20 C7 20.66 7 21.32 7 22 C7.66 22.66 8.32 23.32 9 24 C5.37 24 1.74 24 -2 24 C-2.2144997 15.72984476 -2.07422976 8.03764031 0 0 Z " fill="#FDEFDE" transform="translate(2,14)"/>
<path d="M0 0 C-0.33 0.66 -0.66 1.32 -1 2 C-1.99 2 -2.98 2 -4 2 C-4 2.99 -4 3.98 -4 5 C-3.01 5.33 -2.02 5.66 -1 6 C0.25 8.375 0.25 8.375 1 11 C0.67 11.99 0.34 12.98 0 14 C-0.556875 13.0925 -1.11375 12.185 -1.6875 11.25 C-4.59610591 7.16222953 -7.21504302 4.59498566 -12 3 C-17.6314618 2.44221712 -22.28895433 2.57378497 -27 6 C-28.90083779 8.54953639 -30.4969417 11.20005511 -32 14 C-33 11 -33 11 -33 7 C-32.34 7 -31.68 7 -31 7 C-30.67 6.34 -30.34 5.68 -30 5 C-29.34 5 -28.68 5 -28 5 C-27.67 4.01 -27.34 3.02 -27 2 C-18.65415865 -0.78194712 -8.74372517 -0.18132149 0 0 Z " fill="#FEEBCF" transform="translate(36,0)"/>
<path d="M0 0 C1.32 0 2.64 0 4 0 C3.690625 0.5775 3.38125 1.155 3.0625 1.75 C1.61123571 4.76092984 1.61123571 4.76092984 1 8 C2.35814007 11.21712945 2.35814007 11.21712945 4 14 C0 14 0 14 -2.25 12 C-2.8275 11.34 -3.405 10.68 -4 10 C-4 11.32 -4 12.64 -4 14 C-4.99 14 -5.98 14 -7 14 C-7 9.71 -7 5.42 -7 1 C-6.01 1 -5.02 1 -4 1 C-3.67 1.99 -3.34 2.98 -3 4 C-2.5875 3.34 -2.175 2.68 -1.75 2 C-1.1725 1.34 -0.595 0.68 0 0 Z " fill="#452621" transform="translate(68,11)"/>
<path d="M0 0 C1.65 0.33 3.3 0.66 5 1 C5.66 4.3 6.32 7.6 7 11 C4.29120665 12.35439668 1.99066732 12.06501451 -1 12 C-1 12.66 -1 13.32 -1 14 C-1.99 14 -2.98 14 -4 14 C-3.46148032 8.72250715 -2.22656164 4.74354436 0 0 Z " fill="#2D0503" transform="translate(77,11)"/>
<path d="M0 0 C1.32 0.66 2.64 1.32 4 2 C4 2.66 4 3.32 4 4 C5.65 3.67 7.3 3.34 9 3 C8.67 4.98 8.34 6.96 8 9 C3.71 9 -0.58 9 -5 9 C-3.68 8.67 -2.36 8.34 -1 8 C-1 7.34 -1 6.68 -1 6 C-1.99 5.67 -2.98 5.34 -4 5 C-2.68 4.67 -1.36 4.34 0 4 C0 2.68 0 1.36 0 0 Z " fill="#FAE8CE" transform="translate(118,21)"/>
<path d="M0 0 C0.33 1.32 0.66 2.64 1 4 C0.34 4 -0.32 4 -1 4 C-1 7.96 -1 11.92 -1 16 C-0.01 16.33 0.98 16.66 2 17 C2.6875 19.0625 2.6875 19.0625 3 21 C4.32 21.33 5.64 21.66 7 22 C7 22.66 7 23.32 7 24 C10.63 24.66 14.26 25.32 18 26 C18 26.33 18 26.66 18 27 C11.70088308 27.44993692 7.20149625 26.75983986 2 23 C-2.30717677 17.69885936 -3.28493943 13.73564823 -3.234375 6.97265625 C-2.89892368 4.14927428 -1.68360896 2.24481194 0 0 Z " fill="#EB7027" transform="translate(6,9)"/>
<path d="M0 0 C0.99 0 1.98 0 3 0 C3 0.99 3 1.98 3 3 C3.66 3 4.32 3 5 3 C6.6875 4.75 6.6875 4.75 8 7 C7.9375 9.125 7.9375 9.125 7 11 C4.9375 12.25 4.9375 12.25 3 13 C3 11.35 3 9.7 3 8 C1.68 8.99 0.36 9.98 -1 11 C-0.01 7.7 0.98 4.4 2 1 C1.34 0.67 0.68 0.34 0 0 Z " fill="#EA6B1F" transform="translate(21,10)"/>
<path d="M0 0 C1.32 0 2.64 0 4 0 C3.690625 0.5775 3.38125 1.155 3.0625 1.75 C1.62702436 4.76367213 1.62702436 4.76367213 1 8 C2.3916876 10.13344768 2.3916876 10.13344768 4 12 C4 12.66 4 13.32 4 14 C2.68 14 1.36 14 0 14 C-2.25 11.5 -2.25 11.5 -4 9 C-3.34 9 -2.68 9 -2 9 C-1.67 7.68 -1.34 6.36 -1 5 C-1.66 4.67 -2.32 4.34 -3 4 C-1.75 2 -1.75 2 0 0 Z " fill="#E57732" transform="translate(122,11)"/>
<path d="M0 0 C1.8125 1.375 1.8125 1.375 3 3 C3 3.66 3 4.32 3 5 C1.68 5 0.36 5 -1 5 C-1 4.34 -1 3.68 -1 3 C-1.99 3.66 -2.98 4.32 -4 5 C-3.67 5.99 -3.34 6.98 -3 8 C-4.65 7.67 -6.3 7.34 -8 7 C-8.1875 4.625 -8.1875 4.625 -8 2 C-4.76746204 -0.15502531 -3.74849077 -0.46856135 0 0 Z " fill="#381914" transform="translate(94,11)"/>
<path d="M0 0 C0.99 0 1.98 0 3 0 C3 4.29 3 8.58 3 13 C2.01 13 1.02 13 0 13 C0 11.02 0 9.04 0 7 C-1.65 6.67 -3.3 6.34 -5 6 C-5 5.67 -5 5.34 -5 5 C-3.35 5 -1.7 5 0 5 C0 3.35 0 1.7 0 0 Z " fill="#2B0703" transform="translate(106,12)"/>
<path d="M0 0 C2.97 0.495 2.97 0.495 6 1 C6.79953138 4.28696233 7.09658936 5.71023192 6 9 C4.125 8.6875 4.125 8.6875 2 8 C1.34 7.01 0.68 6.02 0 5 C0.33 4.34 0.66 3.68 1 3 C0.67 2.01 0.34 1.02 0 0 Z " fill="#F26612" transform="translate(12,13)"/>
<path d="M0 0 C0.495 0.7425 0.99 1.485 1.5 2.25 C5.00306724 6.10337396 8.87668416 8.58585867 14.12109375 9.28125 C17.83577533 9.33742666 21.40124809 8.89968798 25 8 C25 8.66 25 9.32 25 10 C19.20669566 11.65142469 12.79475129 12.00320569 7.125 9.75 C4.12404358 8.06946441 2.07382174 6.7374447 0 4 C0 2.68 0 1.36 0 0 Z " fill="#FED2A9" transform="translate(4,26)"/>
<path d="M0 0 C1.65 0.33 3.3 0.66 5 1 C5.625 3.3125 5.625 3.3125 6 6 C5.01 7.485 5.01 7.485 4 9 C3.01 9 2.02 9 1 9 C1 7.35 1 5.7 1 4 C0.34 4 -0.32 4 -1 4 C-0.67 2.68 -0.34 1.36 0 0 Z " fill="#5E3C38" transform="translate(77,11)"/>
<path d="M0 0 C0.33 0 0.66 0 1 0 C1 4.29 1 8.58 1 13 C-0.98 13.99 -0.98 13.99 -3 15 C-3 15.66 -3 16.32 -3 17 C-4.65 17.33 -6.3 17.66 -8 18 C-7.67 17.34 -7.34 16.68 -7 16 C-6.34 16 -5.68 16 -5 16 C-3.15209462 12.68983906 -2.25458513 9.42826509 -1.375 5.75 C-0.98441406 4.13351563 -0.98441406 4.13351563 -0.5859375 2.484375 C-0.39257812 1.66453125 -0.19921875 0.8446875 0 0 Z " fill="#FEDCB7" transform="translate(37,16)"/>
<path d="M0 0 C0.99 0 1.98 0 3 0 C4.0161692 4.62921525 3.83796731 8.34462607 3 13 C2.01 13 1.02 13 0 13 C0 8.71 0 4.42 0 0 Z " fill="#320907" transform="translate(61,12)"/>
<path d="M0 0 C0.33 0 0.66 0 1 0 C1.33 4.62 1.66 9.24 2 14 C1.34 14 0.68 14 0 14 C0 14.66 0 15.32 0 16 C-0.66 16 -1.32 16 -2 16 C-1.85890014 13.89551062 -1.71195825 11.7914123 -1.5625 9.6875 C-1.48128906 8.51574219 -1.40007812 7.34398437 -1.31640625 6.13671875 C-1 3 -1 3 0 0 Z " fill="#FEE9CA" transform="translate(2,14)"/>
<path d="M0 0 C1.32 0 2.64 0 4 0 C4.36923077 5.41538462 4.36923077 5.41538462 2.5 8.375 C2.005 8.91125 1.51 9.4475 1 10 C0 9 0 9 -0.09765625 6.93359375 C-0.08605469 6.10988281 -0.07445313 5.28617188 -0.0625 4.4375 C-0.05347656 3.61121094 -0.04445313 2.78492188 -0.03515625 1.93359375 C-0.02355469 1.29550781 -0.01195313 0.65742188 0 0 Z " fill="#F9EBE0" transform="translate(102,20)"/>
<path d="M0 0 C0.33 0 0.66 0 1 0 C1 4.62 1 9.24 1 14 C-1.35953094 11.64046906 -1.49141413 10.22104383 -2 7 C-3.98 6.34 -5.96 5.68 -8 5 C-7.67 4.34 -7.34 3.68 -7 3 C-6.01 3 -5.02 3 -4 3 C-4 3.66 -4 4.32 -4 5 C-2.68 5 -1.36 5 0 5 C-0.33 4.01 -0.66 3.02 -1 2 C-0.67 1.34 -0.34 0.68 0 0 Z " fill="#E9D2CA" transform="translate(97,11)"/>
<path d="M0 0 C0.66 0 1.32 0 2 0 C1.54705135 1.75140143 1.08741252 3.50107344 0.625 5.25 C0.36976562 6.22453125 0.11453125 7.1990625 -0.1484375 8.203125 C-0.89598509 10.65837303 -1.77123817 12.75617405 -3 15 C-4.2288865 11.48538462 -3.75329849 9.31643613 -2.625 5.8125 C-2.34914063 4.93207031 -2.07328125 4.05164063 -1.7890625 3.14453125 C-1 1 -1 1 0 0 Z " fill="#FECF98" transform="translate(21,11)"/>
<path d="M0 0 C2.99324263 1.0975223 3.84610901 1.67682892 5.25 4.625 C5.4975 5.40875 5.745 6.1925 6 7 C4.68 7 3.36 7 2 7 C-0.25 4.5 -0.25 4.5 -2 2 C-1.34 1.34 -0.68 0.68 0 0 Z " fill="#3C1915" transform="translate(66,18)"/>
<path d="M0 0 C2 2 2 2 2 5 C3.32 5.66 4.64 6.32 6 7 C4.35 7 2.7 7 1 7 C1 7.66 1 8.32 1 9 C0.01 9 -0.98 9 -2 9 C-1.125 2.25 -1.125 2.25 0 0 Z " fill="#401A17" transform="translate(75,16)"/>
<path d="M0 0 C2.51570636 0.97382182 3.73944098 1.46151135 4.9375 3.9375 C5 6 5 6 3.6875 7.75 C2 9 2 9 0 9 C0.556875 7.88625 0.556875 7.88625 1.125 6.75 C2.29515863 4.05716353 2.29515863 4.05716353 1.125 1.6875 C0.75375 1.130625 0.3825 0.57375 0 0 Z " fill="#FFCD96" transform="translate(24,14)"/>
<path d="M0 0 C0.66 0 1.32 0 2 0 C2.66 2.31 3.32 4.62 4 7 C2.35 6.67 0.7 6.34 -1 6 C-1.042721 4.33388095 -1.04063832 2.66617115 -1 1 C-0.67 0.67 -0.34 0.34 0 0 Z " fill="#35110C" transform="translate(87,12)"/>
<path d="M0 0 C1.65 0.33 3.3 0.66 5 1 C5.33 2.65 5.66 4.3 6 6 C4.68 5.01 3.36 4.02 2 3 C0.02 3.99 0.02 3.99 -2 5 C-1.34 3.35 -0.68 1.7 0 0 Z " fill="#563632" transform="translate(51,11)"/>
<path d="M0 0 C0.33 0.99 0.66 1.98 1 3 C2.65 3 4.3 3 6 3 C5.01 3.33 4.02 3.66 3 4 C3 5.32 3 6.64 3 8 C1.68 8 0.36 8 -1 8 C-0.67 5.36 -0.34 2.72 0 0 Z " fill="#5B3C35" transform="translate(83,17)"/>
<path d="M0 0 C0.33 1.32 0.66 2.64 1 4 C3.31 4.66 5.62 5.32 8 6 C8 6.66 8 7.32 8 8 C3.545 7.01 3.545 7.01 -1 6 C-0.67 4.02 -0.34 2.04 0 0 Z " fill="#F0DBD3" transform="translate(85,14)"/>
<path d="M0 0 C0.33 0 0.66 0 1 0 C1 4.29 1 8.58 1 13 C-0.99641149 10.00538277 -1.6651717 8.51569716 -2 5 C-1.0625 2.1875 -1.0625 2.1875 0 0 Z " fill="#F4E0D6" transform="translate(59,11)"/>
<path d="M0 0 C1.32 0 2.64 0 4 0 C3.67 2.64 3.34 5.28 3 8 C2.01 7.01 1.02 6.02 0 5 C0.33 4.34 0.66 3.68 1 3 C0.67 2.01 0.34 1.02 0 0 Z " fill="#EC742B" transform="translate(12,13)"/>
<path d="M0 0 C0.66 0.33 1.32 0.66 2 1 C1.01 2.485 1.01 2.485 0 4 C0.66 5.32 1.32 6.64 2 8 C0.68 7.34 -0.64 6.68 -2 6 C-2 2 -2 2 0 0 Z " fill="#FFD6A3" transform="translate(13,15)"/>
<path d="M0 0 C0.66 0 1.32 0 2 0 C1.42647107 3.87132028 -0.48704352 6.08172796 -3 9 C-3 6.69 -3 4.38 -3 2 C-2.34 2 -1.68 2 -1 2 C-0.67 1.34 -0.34 0.68 0 0 Z " fill="#FEE4C3" transform="translate(6,5)"/>
</svg>
